# xmcd CD database file
#
# Track frame offsets:
#	225
#	14295
#	31982
#	45315
#	58102
#	75241
#	91674
#	108658
#	133757
#	148916
#	192479
#	211011
#
# Disc length: 2993 seconds
#
# Revision: 0
# Processed by: cddbd v1.4PL0 Copyright (c) Steve Scherf et al.
# Submitted via: CDex 1.40Beta8
#
DISCID=9c0bae0c
DTITLE=Flatbroke - ...and Proud of it!
DYEAR=1997
DGENRE=Country
TTITLE0=Honky Tonk Song
TTITLE1=Almost Persuaded
TTITLE2=Roll On Down the Line
TTITLE3=Walking After Midnight
TTITLE4=Streets of Bakersfield
TTITLE5=What Kind of Fool
TTITLE6=Nobody Wins
TTITLE7=Long White Cadillac
TTITLE8=You Ain't Goin Nowhere
TTITLE9=One More Last Chance - I Know You Rider
TTITLE10=Friend of the Devil
TTITLE11=Red Hot
EXTD=YEAR: 1997 ID3G: 2
EXTT0=
EXTT1=
EXTT2=
EXTT3=
EXTT4=
EXTT5=
EXTT6=
EXTT7=
EXTT8=
EXTT9=
EXTT10=
EXTT11=
PLAYORDER=
